HIERARCHY
ROOT hip
{
  OFFSET 0 0 0
  CHANNELS 6 Xposition Yposition Zposition Zrotation Yrotation Xrotation
  JOINT abdomen
  {
    OFFSET 0 20.6881 -0.73152
    CHANNELS 3 Zrotation Xrotation Yrotation
    JOINT chest
    {
      OFFSET 0 11.7043 -0.48768
      CHANNELS 3 Zrotation Xrotation Yrotation
      JOINT neck
      {
        OFFSET 0 22.1894 -2.19456
        CHANNELS 3 Zrotation Xrotation Yrotation
        JOINT head
        {
          OFFSET -0.24384 7.07133 1.2192
          CHANNELS 3 Zrotation Xrotation Yrotation
          JOINT leftEye
          {
            OFFSET 4.14528 8.04674 8.04672
            CHANNELS 3 Zrotation Xrotation Yrotation
            End Site
            {
              OFFSET 1 0 0
            }
          }
          JOINT rightEye
          {
            OFFSET -3.6576 8.04674 8.04672
            CHANNELS 3 Zrotation Xrotation Yrotation
            End Site
            {
              OFFSET 1 0 0
            }
          }
        }
      }
      JOINT rCollar
      {
        OFFSET -2.68224 19.2634 -4.8768
        CHANNELS 3 Zrotation Xrotation Yrotation
        JOINT rShldr
        {
          OFFSET -8.77824 -1.95073 1.46304
          CHANNELS 3 Zrotation Xrotation Yrotation
          JOINT rForeArm
          {
            OFFSET -28.1742 -1.7115 0.48768
            CHANNELS 3 Zrotation Xrotation Yrotation
            JOINT rHand
            {
              OFFSET -22.5879 0.773209 7.07136
              CHANNELS 3 Zrotation Xrotation Yrotation
              JOINT rThumb1
              {
                OFFSET -1.2192 -0.487915 3.41376
                CHANNELS 3 Zrotation Xrotation Yrotation
                JOINT rThumb2
                {
                  OFFSET -3.37035 -0.52449 3.41376
                  CHANNELS 3 Zrotation Xrotation Yrotation
                  End Site
                  {
                    OFFSET -1.78271 -1.18214 1.43049
                  }
                }
              }
              JOINT rIndex1
              {
                OFFSET -7.75947 0.938293 5.60832
                CHANNELS 3 Zrotation Xrotation Yrotation
                JOINT rIndex2
                {
                  OFFSET -2.54057 -0.884171 1.56538
                  CHANNELS 3 Zrotation Xrotation Yrotation
                  End Site
                  {
                    OFFSET -1.62519 -0.234802 1.16502
                  }
                }
              }
              JOINT rMid1
              {
                OFFSET -8.24714 1.18213 3.41376
                CHANNELS 3 Zrotation Xrotation Yrotation
                JOINT rMid2
                {
                  OFFSET -3.10165 -0.590103 1.0647
                  CHANNELS 3 Zrotation Xrotation Yrotation
                  End Site
                  {
                    OFFSET -2.48547 -0.328903 0.83742
                  }
                }
              }
              JOINT rRing1
              {
                OFFSET -8.82822 0.546677 1.51678
                CHANNELS 3 Zrotation Xrotation Yrotation
                JOINT rRing2
                {
                  OFFSET -2.60934 -0.819778 -0.0198488
                  CHANNELS 3 Zrotation Xrotation Yrotation
                  End Site
                  {
                    OFFSET -2.33842 -0.294052 0.168128
                  }
                }
              }
              JOINT rPinky1
              {
                OFFSET -8.27202 -0.0477905 -0.4584
                CHANNELS 3 Zrotation Xrotation Yrotation
                JOINT rPinky2
                {
                  OFFSET -1.82734 -0.647385 -0.700984
                  CHANNELS 3 Zrotation Xrotation Yrotation
                  End Site
                  {
                    OFFSET -1.69225 -0.51767 -0.607171
                  }
                }
              }
            }
          }
        }
      }
      JOINT lCollar
      {
        OFFSET 2.68224 19.2634 -4.8768
        CHANNELS 3 Zrotation Xrotation Yrotation
        JOINT lShldr
        {
          OFFSET 8.77824 -1.95073 1.46304
          CHANNELS 3 Zrotation Xrotation Yrotation
          JOINT lForeArm
          {
            OFFSET 28.1742 -1.7115 0.48768
            CHANNELS 3 Zrotation Xrotation Yrotation
            JOINT lHand
            {
              OFFSET 22.5879 0.773209 7.07136
              CHANNELS 3 Zrotation Xrotation Yrotation
              JOINT lThumb1
              {
                OFFSET 1.2192 -0.487915 3.41376
                CHANNELS 3 Zrotation Xrotation Yrotation
                JOINT lThumb2
                {
                  OFFSET 3.37035 -0.52449 3.41376
                  CHANNELS 3 Zrotation Xrotation Yrotation
                  End Site
                  {
                    OFFSET 1.78271 -1.18214 1.43049
                  }
                }
              }
              JOINT lIndex1
              {
                OFFSET 7.75947 0.938293 5.60832
                CHANNELS 3 Zrotation Xrotation Yrotation
                JOINT lIndex2
                {
                  OFFSET 2.54057 -0.884171 1.56538
                  CHANNELS 3 Zrotation Xrotation Yrotation
                  End Site
                  {
                    OFFSET 1.62519 -0.234802 1.16502
                  }
                }
              }
              JOINT lMid1
              {
                OFFSET 8.24714 1.18213 3.41376
                CHANNELS 3 Zrotation Xrotation Yrotation
                JOINT lMid2
                {
                  OFFSET 3.10165 -0.590103 1.0647
                  CHANNELS 3 Zrotation Xrotation Yrotation
                  End Site
                  {
                    OFFSET 2.48547 -0.328903 0.83742
                  }
                }
              }
              JOINT lRing1
              {
                OFFSET 8.82822 0.546677 1.51678
                CHANNELS 3 Zrotation Xrotation Yrotation
                JOINT lRing2
                {
                  OFFSET 2.60934 -0.819778 -0.0198488
                  CHANNELS 3 Zrotation Xrotation Yrotation
                  End Site
                  {
                    OFFSET 2.33842 -0.294052 0.168128
                  }
                }
              }
              JOINT lPinky1
              {
                OFFSET 8.27202 -0.0477905 -0.4584
                CHANNELS 3 Zrotation Xrotation Yrotation
                JOINT lPinky2
                {
                  OFFSET 1.82734 -0.647385 -0.700984
                  CHANNELS 3 Zrotation Xrotation Yrotation
                  End Site
                  {
                    OFFSET 1.69225 -0.51767 -0.607171
                  }
                }
              }
            }
          }
        }
      }
    }
  }
  JOINT rButtock
  {
    OFFSET -8.77824 4.35084 1.2192
    CHANNELS 3 Zrotation Xrotation Yrotation
    JOINT rThigh
    {
      OFFSET 0 -1.70687 -2.19456
      CHANNELS 3 Zrotation Xrotation Yrotation
      JOINT rShin
      {
        OFFSET 0 -36.8199 0.73152
        CHANNELS 3 Zrotation Xrotation Yrotation
        JOINT rFoot
        {
          OFFSET 0.73152 -45.1104 -5.12064
          CHANNELS 3 Zrotation Xrotation Yrotation
          End Site
          {
            OFFSET -1.1221 -3.69964 12.103
          }
        }
      }
    }
  }
  JOINT lButtock
  {
    OFFSET 8.77824 4.35084 1.2192
    CHANNELS 3 Zrotation Xrotation Yrotation
    JOINT lThigh
    {
      OFFSET 0 -1.70687 -2.19456
      CHANNELS 3 Zrotation Xrotation Yrotation
      JOINT lShin
      {
        OFFSET 0 -36.8199 0.73152
        CHANNELS 3 Zrotation Xrotation Yrotation
        JOINT lFoot
        {
          OFFSET -0.73152 -45.1104 -5.12064
          CHANNELS 3 Zrotation Xrotation Yrotation
          End Site
          {
            OFFSET 1.1221 -3.69964 12.103
          }
        }
      }
    }
  }
}
MOTION
Frames:	6
Frame Time:	0.03333
0.0 0.0 0.0 0.0 0.0 0.0 0.0 0.0 0.0 0.0 0.0 0.0 0.0 0.0 0.0 0.0 0.0 0.0 0.0 0.0 0.0 0.0 0.0 0.0 0.0 0.0 0.0 0.0 0.0 0.0 0.0 0.0 0.0 0.0 0.0 0.0 0.0 0.0 0.0 0.0 0.0 0.0 0.0 0.0 0.0 0.0 0.0 0.0 0.0 0.0 0.0 0.0 0.0 0.0 0.0 0.0 0.0 0.0 0.0 0.0 0.0 0.0 0.0 0.0 0.0 0.0 0.0 0.0 0.0 0.0 0.0 0.0 0.0 0.0 0.0 0.0 0.0 0.0 0.0 0.0 0.0 0.0 0.0 0.0 0.0 0.0 0.0 0.0 0.0 0.0 0.0 0.0 0.0 0.0 0.0 0.0 0.0 0.0 0.0 0.0 0.0 0.0 0.0 0.0 0.0 0.0 0.0 0.0 0.0 0.0 0.0 0.0 0.0 0.0 0.0 0.0 0.0 0.0 0.0 0.0 0.0 0.0 0.0 0.0 0.0 0.0 0.0 0.0 0.0 0.0 0.0 0.0
-0.3006 62.1113 -0.23839999999999997 179.880439 27.911039 179.056131 0.949183 -1.127963 -139.914933 -7.259372 -10.986304 142.050488 -1.262429 -19.434917 9.06037 -42.262692 13.205383 -94.175982 8.329849 4.888645 60.758039 -148.453293 -17.415875 -56.935752 -84.409808 -61.69105 172.758361 -10.223522 62.085968 22.341843 -1.292426 -17.336785 157.455161 9.725865 -12.670334 -42.866826 -176.290251 1.082367 68.995695 116.362434 -31.978172 -128.678481 -158.85591 -9.811071 48.483565 169.757954 54.589487 0.212302 -52.644193 23.974509 -139.025927 -148.768882 -32.86936 139.123291 82.492452 -6.433941 -84.393877 -150.658011 -65.593975 179.248572 -168.630105 33.38749 -48.498207 -153.866515 18.567768 -143.594751 87.969665 -18.961733 -162.768977 -7.885935 -44.718446 -5.078945 -28.187636 -82.072517 176.553517 8.253603 53.030582 34.576503 -88.50927 -43.739816 -52.413924 50.932871 6.837482 -30.949816 69.300683 25.186859 -35.517517 -90.252735 -62.962779 -42.317796 179.625589 -33.574921 -175.058765 -1.75822 -30.218567 138.890507 60.589274 45.57081 122.698273 4.848606 62.005385 -28.600983 61.827996 51.175955 102.716511 19.138382 -51.542888 27.787214 0.530015 -47.698037 0.0 -1.884471 47.47482 -177.443758 -6.871911 0.68693 -99.506332 62.389727 -37.467303 -109.096129 48.40192 -16.793338 74.54381 -2.106543 51.404432 1.620588 8.032138 -2.113464 73.291991 69.516701 -6.290628 -106.694995
-0.9344 62.063100000000006 -0.473 -169.743887 -34.241455 177.860981 5.647941 15.871734 -1.322257 0.783866 -11.475046 7.821123 9.634063 20.935178 83.225187 -36.144413 -0.632864 -54.498939 -6.470007 0.770715 -13.572167 6.231629 -1.339085 -24.23305 -151.296453 13.756492 154.82786 127.196035 -29.037381 161.261894 77.167951 37.65573 67.742924 -40.243167 55.426916 20.030897 -173.408902 -1.207282 91.803283 14.117134 -58.216215 12.305894 -97.443839 26.784642 74.009856 77.208074 -55.557588 19.105822 -2.817781 1.70947 -3.395559 39.370055 -75.271914 26.485894 -155.492406 0.995584 -179.583461 84.148689 85.792667 -53.124217 -167.305405 -19.046123 -163.579923 -44.341465 -20.101503 -4.284054 73.772079 -78.289449 99.015824 100.73114 -25.062872 151.276447 -4.599141 9.396241 117.350664 -157.219074 -20.40361 -136.101742 -7.375023 -13.100006 -10.696088 140.861318 -1.303305 -119.446055 177.811863 -50.192461 -122.30497 -150.580635 -75.577666 -77.526514 4.536504 0.485004 8.034427 -2.638404 0.366676 0.800731 6.840979 -34.463059 2.249716 -173.827762 71.945358 162.11464 107.253713 1.836293 151.763508 27.383596 47.564765 -146.396301 89.518478 46.991284 47.906417 -125.646167 45.685374 117.163745 56.663996 -48.61629 111.827738 151.755717 -32.397531 -126.079158 1.391209 1.974928 -1.836239 71.906378 -51.983551 -43.919443 -80.614328 -11.440586 -155.813979 5.402945 63.179042 -101.239183
-2.2846 59.920899999999996 -0.7801 -170.451265 -32.924658 179.307604 2.7384 2.582332 180.0 -3.701814 3.683004 -171.948639 7.101239 32.410414 120.472775 -31.070787 20.776587 -81.30374 -12.820392 2.646512 -23.236712 -2.656731 0.426875 -18.253037 -119.881626 43.896729 118.358098 -113.088237 22.584249 89.668673 9.180858 -16.85318 -136.518625 -160.91269 23.35474 132.498816 -163.652686 -13.977078 87.645198 -134.336268 -24.93609 66.460036 -49.911746 35.162946 13.070419 -179.267218 -37.339142 77.443709 18.726171 -30.497429 8.264279 88.971635 80.798655 -116.766387 -24.258704 -83.343554 -22.999355 89.88997 86.776235 -89.180923 -11.362851 -33.192918 0.278185 -84.677871 -42.628485 -71.543005 -1.02618 26.927858 3.63652 -8.803325 18.932397 -62.85539 -91.137334 80.476309 -156.573188 -176.364625 -12.076783 -138.060477 -76.284029 -42.693918 -25.846046 70.627439 51.222203 -33.727319 148.568816 -18.77858 -119.380662 7.06879 13.574188 22.395665 159.495004 -4.616598 -144.350198 0.06549 28.740482 -1.380321 130.25632 18.392847 -169.071833 133.053605 -27.264977 -167.709327 -5.896131 -25.545204 -11.366683 -102.201084 80.094283 73.285818 0.756016 -2.647523 -0.936168 -17.708915 -10.743301 77.391128 71.700993 -4.143735 111.479179 133.176845 -30.423637 -158.159426 -0.071041 0.285048 13.994551 44.530348 -65.851473 47.151883 31.37543 74.618499 -172.193185 45.516009 -13.525708 157.552496
-2.1377 59.5414 -1.7247 -166.412675 -33.547477 173.608165 6.14764 10.506255 -61.399145 9.28245 -1.8391 72.866786 6.294323 20.921533 76.709365 -26.371708 -4.458163 -49.937194 -1.660232 0.06742 -4.650568 -0.703608 0.103753 -16.776437 87.453158 -82.150576 69.225033 -174.709936 4.743709 -123.409028 -12.962674 -49.939581 94.942329 -3.591463 -38.629726 -6.040774 168.916611 -58.37875 87.606312 -101.250168 -4.141352 66.382293 1.426541 -21.634775 -27.883357 -22.979986 47.183523 38.270361 -0.559673 0.029411 0.603376 -167.783039 64.748544 143.499024 -155.32205 1.00171 -176.960068 42.286196 47.594347 -23.632819 -110.88401 -52.454439 -75.940282 57.204988 46.366752 -32.575333 0.657262 -42.804833 17.56707 -68.117803 3.495519 6.484479 8.462549 7.932006 -90.591208 6.756342 10.751401 -1.406689 11.600929 26.04223 3.737813 19.306366 -3.659814 -30.154193 108.090071 25.499669 -85.683661 153.665702 -1.755318 -100.283994 24.406916 59.35489 -29.039162 9.094003 14.54648 20.330948 140.745238 -1.424851 178.503362 -6.551558 45.221595 -13.854781 -46.199811 51.904049 6.26982 28.715405 -2.502605 4.066631 -148.427976 64.610189 -17.835755 133.167393 45.229653 106.682659 68.20017 -8.640765 34.840815 -75.535238 -10.451117 -151.137395 -178.284129 72.918214 -1.795007 -148.216075 1.554222 92.506366 73.976012 -16.029618 -32.700396 -111.396641 32.589881 25.409744
-2.3257 59.650099999999995 -2.7758000000000003 -167.160038 -31.429887 173.874991 4.865406 11.299286 59.516899 -6.959723 -7.564949 -39.135306 13.166033 21.547576 84.984984 -27.690281 3.396463 -67.492479 5.896482 -0.98519 -18.954841 -2.566862 -0.219563 9.776473 -2.119298 -0.652868 -4.327645 71.295735 19.544998 5.694652 173.929647 -15.707645 33.2133 -156.883571 31.118269 127.272268 60.233966 -43.701633 7.928589 -38.839005 -9.361469 5.979538 177.254864 -70.209174 135.308181 -11.13186 56.795481 37.397978 -159.113028 -8.013174 141.277847 179.813562 -66.487838 126.649273 -138.311448 -3.005636 175.137803 -120.640496 -2.923571 -176.889181 -69.700121 -55.225712 -43.62707 -102.650164 74.04311 178.774864 153.649642 -3.113391 -155.520468 -156.769014 -30.18441 155.45497 -1.377471 -60.288696 -87.187935 6.768745 29.126771 -4.112807 3.940258 3.963316 -2.570098 39.435644 13.743636 -17.718797 169.119125 -17.623642 -119.655191 -155.943951 -76.423198 -113.807289 -88.807253 -81.667713 -59.317167 174.479033 -12.897651 -131.930939 9.931363 25.760129 -2.717629 -18.196896 28.540069 -24.072 53.012221 -48.665508 54.848218 -36.439316 36.960366 0.555508 13.882829 11.226664 16.857022 -36.301334 -13.574703 -10.583945 49.007225 54.699673 -127.881035 68.666634 27.217852 31.691087 -157.158446 77.055799 -16.085574 -148.396861 5.867631 -2.903824 25.942823 77.199879 42.828775 6.884377 -30.297927 -74.861053
